<svg width="21" height="25" viewBox="0 0 21 25" fill="none" xmlns="http://www.w3.org/2000/svg">
<path d="M14.493 7.36926C15.169 7.76545 15.9296 8.00317 16.7746 8.00317C19.0986 8.00317 21 6.22029 21 4.00159C21 1.78289 19.0986 0 16.7746 0C14.4507 0 12.5493 1.78289 12.5493 4.00159C12.5493 4.35816 12.5916 4.71474 12.7183 5.07132L10.1831 6.73534L6.21126 9.38986C5.61971 9.0729 4.94366 8.91442 4.22535 8.91442C1.90141 8.91442 0 10.6973 0 12.916C0 15.1347 1.90141 16.9176 4.22535 16.9176C5.23944 16.9176 6.16901 16.6006 6.88732 16.046L10.1831 18.2647L12.7183 19.9287C12.6338 20.2853 12.5493 20.6418 12.5493 20.9984C12.5493 23.2171 14.4507 25 16.7746 25C19.0986 25 21 23.2171 21 20.9984C21 18.7797 19.0986 16.9968 16.7746 16.9968C15.9296 16.9968 15.1268 17.2345 14.493 17.6307L10.9014 15.2139L8.40845 13.5499C8.4507 13.3518 8.45071 13.1141 8.45071 12.916C8.45071 12.4406 8.3662 11.9651 8.19718 11.5293L10.9014 9.70681L14.493 7.36926ZM8.19718 14.2235L10.5211 15.7686L13.9437 18.0666C13.5211 18.4231 13.1831 18.859 12.9296 19.374L10.5211 17.7892L7.35211 15.6498C7.73239 15.2139 8.02817 14.7385 8.19718 14.2235ZM7.9014 11.0143C7.60563 10.5388 7.22535 10.103 6.76057 9.78606L10.5211 7.29002L12.9296 5.70523C13.1831 6.22029 13.5211 6.65611 13.9437 7.01268L10.5211 9.31062L7.9014 11.0143Z" fill="#C4C4C4"/>
</svg>
