<svg width="23" height="24" viewBox="0 0 23 24" fill="none" xmlns="http://www.w3.org/2000/svg">
<path d="M7.25002 10.0736L7.93909 9.28609C8.52972 8.66265 8.82503 7.80953 8.75941 6.9564C8.72659 6.10328 8.33284 5.31577 7.7094 4.72515L6.52814 3.64233C5.93751 3.11733 5.18283 2.82202 4.36252 2.82202C3.44377 2.82202 2.59065 3.21577 1.96721 3.87202L1.27813 4.65953C1.1797 4.75796 1.11407 4.8564 1.01564 4.98765L0.982833 5.02046C0.326582 5.57827 -0.231235 6.9564 0.0968906 8.66265C1.60627 16.5048 8.20158 22.4767 16.175 23.1986C17.225 23.297 18.2094 23.0674 18.9313 22.608C19.2266 22.4439 19.4891 22.2142 19.7188 21.9845L20.4079 21.197C21.5891 19.8845 21.4907 17.8502 20.1782 16.6361L18.9969 15.5533C18.4063 15.0283 17.6516 14.733 16.8313 14.733C15.9125 14.733 15.0594 15.1267 14.436 15.783L13.7469 16.5705C13.4516 16.8986 13.2219 17.2923 13.0906 17.7189L13.025 17.9158L12.8281 17.8502C9.71096 16.6033 7.15159 14.2736 5.64222 11.2548L5.54376 11.058L5.77345 10.9923C6.36408 10.8283 6.85627 10.5002 7.25002 10.0736Z" fill="#C4C4C4"/>
<path d="M11.1875 0.754684C11.1875 1.18125 11.5156 1.50937 11.9422 1.50937C17.1922 1.50937 21.4906 5.80782 21.4906 11.0578C21.4906 11.4844 21.8188 11.8125 22.2453 11.8125C22.6719 11.8125 23 11.4844 23 11.0578C23 4.95469 18.0453 0 11.9422 0C11.5156 0 11.1875 0.360934 11.1875 0.754684Z" fill="#C4C4C4"/>
<path d="M11.089 4.42977C11.089 4.85633 11.4171 5.18445 11.8437 5.18445C15.1577 5.18445 17.8484 7.87508 17.8484 11.1891C17.8484 11.6157 18.1765 11.9438 18.6031 11.9438C19.0296 11.9438 19.3578 11.6157 19.3578 11.1891C19.3578 7.05477 16.0109 3.70789 11.8765 3.70789C11.4171 3.67508 11.089 4.03602 11.089 4.42977Z" fill="#C4C4C4"/>
</svg>
