<svg width="22" height="22" viewBox="0 0 22 22" fill="none" xmlns="http://www.w3.org/2000/svg">
<path d="M11 1.97953C13.937 1.97953 14.2837 1.98988 15.443 2.04423C16.5142 2.09339 17.0964 2.27194 17.4846 2.42202C17.9969 2.62127 18.3644 2.85933 18.7499 3.24488C19.1355 3.63044 19.3736 3.9953 19.5728 4.51023C19.7229 4.89838 19.9014 5.48059 19.9506 6.55187C20.0024 7.71113 20.0153 8.06046 20.0153 10.9948C20.0153 13.9292 20.0049 14.2785 19.9506 15.4378C19.9014 16.5091 19.7229 17.0913 19.5728 17.4794C19.3736 17.9918 19.1355 18.3592 18.7499 18.7448C18.3644 19.1303 17.9995 19.3684 17.4846 19.5676C17.0964 19.7177 16.5142 19.8963 15.443 19.9454C14.2837 19.9972 13.937 20.0101 11 20.0101C8.06304 20.0101 7.7163 19.9998 6.55704 19.9454C5.48577 19.8963 4.90355 19.7177 4.51541 19.5676C4.00306 19.3684 3.63561 19.1303 3.25006 18.7448C2.8645 18.3592 2.62644 17.9944 2.42719 17.4794C2.27711 17.0913 2.09856 16.5091 2.0494 15.4378C1.99765 14.2785 1.98471 13.9292 1.98471 10.9948C1.98471 8.06046 1.99506 7.71113 2.0494 6.55187C2.09856 5.48059 2.27711 4.89838 2.42719 4.51023C2.62644 3.99788 2.8645 3.63044 3.25006 3.24488C3.63561 2.85933 4.00047 2.62127 4.51541 2.42202C4.90355 2.27194 5.48577 2.09339 6.55704 2.04423C7.7163 1.99247 8.06304 1.97953 11 1.97953ZM11 0C8.01388 0 7.63867 0.0129382 6.46648 0.0672783C5.29687 0.121618 4.49729 0.30534 3.79605 0.579629C3.0741 0.86168 2.46083 1.23689 1.84757 1.84757C1.23689 2.45824 0.859091 3.07151 0.579628 3.79605C0.307927 4.49471 0.121618 5.29428 0.0672778 6.46648C0.0129377 7.63867 0 8.01388 0 11C0 13.9861 0.0129377 14.3613 0.0672778 15.5335C0.121618 16.7031 0.305339 17.5027 0.579628 18.204C0.861679 18.9259 1.23689 19.5392 1.84757 20.1524C2.45824 20.7631 3.07151 21.1409 3.79605 21.4204C4.49471 21.6921 5.29428 21.8784 6.46648 21.9327C7.63867 21.9871 8.01388 22 11 22C13.9861 22 14.3613 21.9871 15.5335 21.9327C16.7031 21.8784 17.5027 21.6947 18.204 21.4204C18.9259 21.1383 19.5392 20.7631 20.1524 20.1524C20.7631 19.5418 21.1409 18.9285 21.4204 18.204C21.6921 17.5053 21.8784 16.7057 21.9327 15.5335C21.9871 14.3613 22 13.9861 22 11C22 8.01388 21.9871 7.63867 21.9327 6.46648C21.8784 5.29687 21.6947 4.49729 21.4204 3.79605C21.1383 3.0741 20.7631 2.46083 20.1524 1.84757C19.5418 1.23689 18.9285 0.859092 18.204 0.579629C17.5053 0.307928 16.7057 0.121618 15.5335 0.0672783C14.3613 0.0103506 13.9861 0 11 0Z" fill="#41464B"/>
<path d="M10.9998 5.34863C7.88175 5.34863 5.35364 7.87674 5.35364 10.9948C5.35364 14.1129 7.88175 16.641 10.9998 16.641C14.1179 16.641 16.646 14.1129 16.646 10.9948C16.646 7.87674 14.1179 5.34863 10.9998 5.34863ZM10.9998 14.6615C8.97631 14.6615 7.33317 13.0209 7.33317 10.9948C7.33317 8.96872 8.97373 7.32817 10.9998 7.32817C13.0259 7.32817 14.6665 8.96872 14.6665 10.9948C14.6665 13.0209 13.0234 14.6615 10.9998 14.6615Z" fill="#41464B"/>
<path d="M16.8714 6.44578C17.6003 6.44578 18.1911 5.85493 18.1911 5.12609C18.1911 4.39724 17.6003 3.8064 16.8714 3.8064C16.1426 3.8064 15.5518 4.39724 15.5518 5.12609C15.5518 5.85493 16.1426 6.44578 16.8714 6.44578Z" fill="#41464B"/>
</svg>
