<svg width="24" height="23" viewBox="0 0 24 23" fill="none" xmlns="http://www.w3.org/2000/svg">
<path d="M22.0894 0H1.91062C0.871512 0 0 0.848082 0 1.93363V21.0664C0 22.118 0.837992 23 1.91062 23H22.0894C23.1285 23 24 22.1519 24 21.0664V1.93363C24 0.848082 23.1285 0 22.0894 0ZM18.2681 1.35693V11.059H5.69832V1.35693H18.2681ZM4.52514 20.0487H1.07263V16.5885H4.52514V20.0487ZM4.52514 13.1283H1.07263V9.63422H4.52514V13.1283ZM4.52514 6.17404H1.07263V2.67994H4.52514V6.17404ZM5.69832 21.6431V11.941H18.2681V21.6431H5.69832ZM22.8603 20.0487H19.4078V16.5885H22.8603V20.0487ZM22.8603 13.1283H19.4078V9.63422H22.8603V13.1283ZM22.8603 6.17404H19.4078V2.67994H22.8603V6.17404Z" fill="#C4C4C4"/>
</svg>
